<svg width="26" height="26" viewBox="0 0 26 26" fill="none" xmlns="http://www.w3.org/2000/svg">
<g filter="url(#filter0_d_1_56)">
<path d="M20.6 18L14.3 11.7C13.8 12.1 13.225 12.4167 12.575 12.65C11.925 12.8833 11.2333 13 10.5 13C8.68333 13 7.146 12.3707 5.888 11.112C4.63 9.85333 4.00067 8.316 4 6.5C4 4.68333 4.62933 3.146 5.888 1.888C7.14667 0.63 8.684 0.000666667 10.5 0C12.3167 0 13.854 0.629333 15.112 1.888C16.37 3.14667 16.9993 4.684 17 6.5C17 7.23333 16.8833 7.925 16.65 8.575C16.4167 9.225 16.1 9.8 15.7 10.3L22 16.6L20.6 18ZM10.5 11C11.75 11 12.8127 10.5623 13.688 9.687C14.5633 8.81167 15.0007 7.74933 15 6.5C15 5.25 14.5623 4.18733 13.687 3.312C12.8117 2.43667 11.7493 1.99933 10.5 2C9.25 2 8.18733 2.43767 7.312 3.313C6.43667 4.18833 5.99933 5.25067 6 6.5C6 7.75 6.43767 8.81267 7.313 9.688C8.18833 10.5633 9.25067 11.0007 10.5 11Z" fill="black"/>
<path d="M20.6 17.2929L14.6536 11.3464L14.3371 11.03L13.9877 11.3096C13.534 11.6725 13.0082 11.9632 12.4061 12.1794C11.8135 12.3921 11.1793 12.5 10.5 12.5C8.81289 12.5 7.4037 11.9212 6.24165 10.7585C5.07948 9.59576 4.50066 8.18646 4.5 6.5L20.6 17.2929ZM20.6 17.2929L21.2929 16.6L15.3464 10.6536L15.03 10.3371L15.3096 9.98765C15.6725 9.53397 15.9632 9.00825 16.1794 8.40607C16.3921 7.81359 16.5 7.17945 16.5 6.50018L20.6 17.2929ZM14.0416 10.0406C13.0715 11.0106 11.8813 11.4999 10.5003 11.5C10.5002 11.5 10.5001 11.5 10.5 11.5V11C9.25067 11.0007 8.18833 10.5633 7.313 9.688L14.0416 10.0406ZM14.0416 10.0406C15.0117 9.07042 15.5007 7.88039 15.5 6.49973M14.0416 10.0406L15.5 6.49973M15.5 6.49973C15.4999 5.1187 15.0106 3.92851 14.0406 2.95845M15.5 6.49973C15.5 6.49982 15.5 6.49991 15.5 6.5H15L14.0406 2.95845M14.0406 2.95845C13.0705 1.98837 11.8805 1.49933 10.5 1.5L14.0406 2.95845ZM4.5 6.49982C4.50004 4.81278 5.07883 3.40366 6.24146 2.24165C7.40424 1.07948 8.81354 0.500661 10.5 0.5L4.5 6.49982ZM10.5002 0.5C12.1872 0.500042 13.5963 1.07883 14.7584 2.24146C15.9205 3.40424 16.4993 4.81354 16.5 6.5L10.5002 0.5ZM6.95845 2.95945C5.98837 3.92952 5.49933 5.11946 5.5 6.5L10.4997 1.5C9.11869 1.50006 7.92851 1.98938 6.95845 2.95945Z" stroke="black"/>
</g>
<defs>
<filter id="filter0_d_1_56" x="0" y="0" width="26" height="26" filterUnits="userSpaceOnUse" color-interpolation-filters="sRGB">
<feFlood flood-opacity="0" result="BackgroundImageFix"/>
<feColorMatrix in="SourceAlpha" type="matrix" values="0 0 0 0 0 0 0 0 0 0 0 0 0 0 0 0 0 0 127 0" result="hardAlpha"/>
<feOffset dy="4"/>
<feGaussianBlur stdDeviation="2"/>
<feComposite in2="hardAlpha" operator="out"/>
<feColorMatrix type="matrix" values="0 0 0 0 0 0 0 0 0 0 0 0 0 0 0 0 0 0 0.25 0"/>
<feBlend mode="normal" in2="BackgroundImageFix" result="effect1_dropShadow_1_56"/>
<feBlend mode="normal" in="SourceGraphic" in2="effect1_dropShadow_1_56" result="shape"/>
</filter>
</defs>
</svg>
